<svg xmlns="http://www.w3.org/2000/svg" width="500" height="500" viewBox="0 0 500 500" fill="none"><metadata><rdf:RDF xmlns:rdf="http://www.w3.org/1999/02/22-rdf-syntax-ns#" xmlns:dc="http://purl.org/dc/elements/1.1/"><rdf:Description><dc:creator>RealFaviconGenerator</dc:creator><dc:source>https://realfavicongenerator.net</dc:source></rdf:Description></rdf:RDF></metadata><path d="M276.5 246.3V96H222.5V246.3C175.5 258.3 140 302 140 353.5C140 389.5 157.8 421 184.5 442H316.5C343.2 421 360 389.5 360 353.5C360 302.1 324.5 258.4 276.5 246.3Z" fill="white"></path><path d="M276.5 246.3V96H222.5V246.3C175.5 258.3 140 302 140 353.5C140 389.5 157.8 421 184.5 442H316.5C343.2 421 360 389.5 360 353.5C360 302.1 324.5 258.4 276.5 246.3Z" stroke="#3F2975" stroke-width="6" stroke-miterlimit="10" stroke-linecap="round" stroke-linejoin="round"></path><path d="M337.8 313H311.1C310.7 307.4 306 303 300.3 303C294.6 303 289.9 307.4 289.5 313H288.4C287.9 303 279.6 295 269.5 295C266.3 295 263.3 295.8 260.7 297.2C257.1 286.8 247.2 279.3 235.5 279.3C222.7 279.3 211.9 288.4 209.4 300.5C207 298.9 204.1 298 201 298C192.6 298 185.8 304.7 185.5 313H163.2C157.5 325.5 154.5 339.3 154.5 353C154.5 381.8 167.2 408.7 189.3 427H311.6C333.8 408.7 346.4 381.8 346.4 353C346.5 339.3 343.5 325.5 337.8 313Z" fill="#FF5959"></path><path d="M337.8 313H311.1C310.7 307.4 306 303 300.3 303C294.6 303 289.9 307.4 289.5 313H288.4C287.9 303 279.6 295 269.5 295C266.3 295 263.3 295.8 260.7 297.2C257.1 286.8 247.2 279.3 235.5 279.3C222.7 279.3 211.9 288.4 209.4 300.5C207 298.9 204.1 298 201 298C192.6 298 185.8 304.7 185.5 313H163.2C157.5 325.5 154.5 339.3 154.5 353C154.5 381.8 167.2 408.7 189.3 427H311.6C333.8 408.7 346.4 381.8 346.4 353C346.5 339.3 343.5 325.5 337.8 313Z" stroke="#3F2975" stroke-width="6" stroke-miterlimit="10" stroke-linecap="round" stroke-linejoin="round"></path><path d="M210.7 315.8C209.5 312.8 208.8 309.4 208.8 306C208.8 291.3 220.7 279.3 235.5 279.3C247.1 279.3 257 286.8 260.7 297.2" stroke="#3F2975" stroke-width="6" stroke-miterlimit="10" stroke-linecap="round" stroke-linejoin="round"></path><path d="M252 306.6C254.9 299.8 261.6 295 269.5 295C280 295 288.5 303.5 288.5 314" stroke="#3F2975" stroke-width="6" stroke-miterlimit="10" stroke-linecap="round" stroke-linejoin="round"></path><path d="M289.5 313.8C289.5 307.8 294.4 303 300.3 303C306.3 303 311.1 307.9 311.1 313.8" stroke="#3F2975" stroke-width="6" stroke-miterlimit="10" stroke-linecap="round" stroke-linejoin="round"></path><path d="M268 57H231V119H268V57Z" fill="#D29C5E"></path><path d="M268 57H231V119H268V57Z" stroke="#3F2975" stroke-width="6" stroke-miterlimit="10" stroke-linecap="round" stroke-linejoin="round"></path><path d="M280 95H220C213.4 95 208 89.6 208 83C208 76.4 213.4 71 220 71H280C286.6 71 292 76.4 292 83C292 89.6 286.6 95 280 95Z" fill="#D9D6E5"></path><path d="M280 95H220C213.4 95 208 89.6 208 83C208 76.4 213.4 71 220 71H280C286.6 71 292 76.4 292 83C292 89.6 286.6 95 280 95Z" stroke="#3F2975" stroke-width="6" stroke-miterlimit="10" stroke-linecap="round" stroke-linejoin="round"></path><path d="M265.3 277.1C272.038 277.1 277.5 271.638 277.5 264.9C277.5 258.162 272.038 252.7 265.3 252.7C258.562 252.7 253.1 258.162 253.1 264.9C253.1 271.638 258.562 277.1 265.3 277.1Z" fill="#FF5959"></path><path d="M252.5 166.7C255.538 166.7 258 164.238 258 161.2C258 158.163 255.538 155.7 252.5 155.7C249.462 155.7 247 158.163 247 161.2C247 164.238 249.462 166.7 252.5 166.7Z" fill="#FF5959"></path><path d="M242 207.6C245.866 207.6 249 204.466 249 200.6C249 196.734 245.866 193.6 242 193.6C238.134 193.6 235 196.734 235 200.6C235 204.466 238.134 207.6 242 207.6Z" fill="#FF5959"></path><path d="M265.3 277.1C272.038 277.1 277.5 271.638 277.5 264.9C277.5 258.162 272.038 252.7 265.3 252.7C258.562 252.7 253.1 258.162 253.1 264.9C253.1 271.638 258.562 277.1 265.3 277.1Z" stroke="#3F2975" stroke-width="6" stroke-miterlimit="10" stroke-linecap="round" stroke-linejoin="round"></path><path d="M252.5 165.2C254.709 165.2 256.5 163.409 256.5 161.2C256.5 158.991 254.709 157.2 252.5 157.2C250.291 157.2 248.5 158.991 248.5 161.2C248.5 163.409 250.291 165.2 252.5 165.2Z" stroke="#3F2975" stroke-width="6" stroke-miterlimit="10" stroke-linecap="round" stroke-linejoin="round"></path><path d="M242 207.6C245.866 207.6 249 204.466 249 200.6C249 196.734 245.866 193.6 242 193.6C238.134 193.6 235 196.734 235 200.6C235 204.466 238.134 207.6 242 207.6Z" stroke="#3F2975" stroke-width="6" stroke-miterlimit="10" stroke-linecap="round" stroke-linejoin="round"></path><path d="M302.8 282.6C304.457 282.6 305.8 281.256 305.8 279.6C305.8 277.943 304.457 276.6 302.8 276.6C301.143 276.6 299.8 277.943 299.8 279.6C299.8 281.256 301.143 282.6 302.8 282.6Z" fill="#FF5959"></path><path d="M302.8 282.6C304.457 282.6 305.8 281.256 305.8 279.6C305.8 277.943 304.457 276.6 302.8 276.6C301.143 276.6 299.8 277.943 299.8 279.6C299.8 281.256 301.143 282.6 302.8 282.6Z" stroke="#3F2975" stroke-width="5" stroke-miterlimit="10" stroke-linecap="round" stroke-linejoin="round"></path><path d="M284.8 289.4C285.242 289.4 285.6 289.042 285.6 288.6C285.6 288.158 285.242 287.8 284.8 287.8C284.358 287.8 284 288.158 284 288.6C284 289.042 284.358 289.4 284.8 289.4Z" stroke="#3F2975" stroke-width="5" stroke-miterlimit="10" stroke-linecap="round" stroke-linejoin="round"></path><path d="M229.5 381C231.157 381 232.5 379.657 232.5 378C232.5 376.343 231.157 375 229.5 375C227.843 375 226.5 376.343 226.5 378C226.5 379.657 227.843 381 229.5 381Z" fill="#3F2975"></path><path d="M251.5 408.4C255.035 408.4 257.9 405.534 257.9 402C257.9 398.465 255.035 395.6 251.5 395.6C247.965 395.6 245.1 398.465 245.1 402C245.1 405.534 247.965 408.4 251.5 408.4Z" fill="#3F2975"></path><path d="M260.5 370C262.157 370 263.5 368.657 263.5 367C263.5 365.343 262.157 364 260.5 364C258.843 364 257.5 365.343 257.5 367C257.5 368.657 258.843 370 260.5 370Z" fill="#3F2975"></path><path d="M281.5 402.4C283.378 402.4 284.9 400.877 284.9 399C284.9 397.122 283.378 395.6 281.5 395.6C279.622 395.6 278.1 397.122 278.1 399C278.1 400.877 279.622 402.4 281.5 402.4Z" fill="#3F2975"></path></svg>